<mxfile host="app.diagrams.net" modified="2022-01-13T06:26:52.573Z" agent="5.0 (Windows NT 10.0; Win64; x64) AppleWebKit/537.36 (KHTML, like Gecko) Chrome/96.0.4664.110 Safari/537.36 OPR/82.0.4227.43" etag="7eGE9nkSQ7GXPJQo44T8" version="16.2.4" type="github">
  <diagram id="qiEBtM8c6WKFINXhQ_-S" name="Page-1">
    <mxGraphModel dx="2752" dy="1683" grid="1" gridSize="10" guides="1" tooltips="1" connect="1" arrows="1" fold="1" page="1" pageScale="1" pageWidth="850" pageHeight="1100" math="0" shadow="0">
      <root>
        <mxCell id="0" />
        <mxCell id="1" parent="0" />
        <mxCell id="RJoXQkrmtfC7raOjRo7R-1" value="Elevator" style="swimlane;fontStyle=1;align=center;verticalAlign=top;childLayout=stackLayout;horizontal=1;startSize=26;horizontalStack=0;resizeParent=1;resizeParentMax=0;resizeLast=0;collapsible=1;marginBottom=0;" parent="1" vertex="1">
          <mxGeometry x="-1080" y="-610" width="160" height="86" as="geometry" />
        </mxCell>
        <mxCell id="RJoXQkrmtfC7raOjRo7R-2" value="+ field: type" style="text;strokeColor=none;fillColor=none;align=left;verticalAlign=top;spacingLeft=4;spacingRight=4;overflow=hidden;rotatable=0;points=[[0,0.5],[1,0.5]];portConstraint=eastwest;" parent="RJoXQkrmtfC7raOjRo7R-1" vertex="1">
          <mxGeometry y="26" width="160" height="26" as="geometry" />
        </mxCell>
        <mxCell id="RJoXQkrmtfC7raOjRo7R-3" value="" style="line;strokeWidth=1;fillColor=none;align=left;verticalAlign=middle;spacingTop=-1;spacingLeft=3;spacingRight=3;rotatable=0;labelPosition=right;points=[];portConstraint=eastwest;" parent="RJoXQkrmtfC7raOjRo7R-1" vertex="1">
          <mxGeometry y="52" width="160" height="8" as="geometry" />
        </mxCell>
        <mxCell id="RJoXQkrmtfC7raOjRo7R-4" value="+ method(type): type" style="text;strokeColor=none;fillColor=none;align=left;verticalAlign=top;spacingLeft=4;spacingRight=4;overflow=hidden;rotatable=0;points=[[0,0.5],[1,0.5]];portConstraint=eastwest;" parent="RJoXQkrmtfC7raOjRo7R-1" vertex="1">
          <mxGeometry y="60" width="160" height="26" as="geometry" />
        </mxCell>
        <mxCell id="RJoXQkrmtfC7raOjRo7R-5" value="" style="endArrow=diamondThin;endFill=0;endSize=24;html=1;rounded=0;entryX=0.5;entryY=1;entryDx=0;entryDy=0;exitX=0.5;exitY=0;exitDx=0;exitDy=0;" parent="1" source="RJoXQkrmtfC7raOjRo7R-10" target="RJoXQkrmtfC7raOjRo7R-1" edge="1">
          <mxGeometry width="160" relative="1" as="geometry">
            <mxPoint x="-1110" y="-480" as="sourcePoint" />
            <mxPoint x="-950" y="-480" as="targetPoint" />
          </mxGeometry>
        </mxCell>
        <mxCell id="RJoXQkrmtfC7raOjRo7R-6" value="Door" style="swimlane;fontStyle=1;align=center;verticalAlign=top;childLayout=stackLayout;horizontal=1;startSize=26;horizontalStack=0;resizeParent=1;resizeParentMax=0;resizeLast=0;collapsible=1;marginBottom=0;" parent="1" vertex="1">
          <mxGeometry x="-850" y="-410" width="160" height="86" as="geometry" />
        </mxCell>
        <mxCell id="RJoXQkrmtfC7raOjRo7R-7" value="+ field: type" style="text;strokeColor=none;fillColor=none;align=left;verticalAlign=top;spacingLeft=4;spacingRight=4;overflow=hidden;rotatable=0;points=[[0,0.5],[1,0.5]];portConstraint=eastwest;" parent="RJoXQkrmtfC7raOjRo7R-6" vertex="1">
          <mxGeometry y="26" width="160" height="26" as="geometry" />
        </mxCell>
        <mxCell id="RJoXQkrmtfC7raOjRo7R-8" value="" style="line;strokeWidth=1;fillColor=none;align=left;verticalAlign=middle;spacingTop=-1;spacingLeft=3;spacingRight=3;rotatable=0;labelPosition=right;points=[];portConstraint=eastwest;" parent="RJoXQkrmtfC7raOjRo7R-6" vertex="1">
          <mxGeometry y="52" width="160" height="8" as="geometry" />
        </mxCell>
        <mxCell id="RJoXQkrmtfC7raOjRo7R-9" value="+ method(type): type" style="text;strokeColor=none;fillColor=none;align=left;verticalAlign=top;spacingLeft=4;spacingRight=4;overflow=hidden;rotatable=0;points=[[0,0.5],[1,0.5]];portConstraint=eastwest;" parent="RJoXQkrmtfC7raOjRo7R-6" vertex="1">
          <mxGeometry y="60" width="160" height="26" as="geometry" />
        </mxCell>
        <mxCell id="RJoXQkrmtfC7raOjRo7R-10" value="Indıcator Light" style="swimlane;fontStyle=1;align=center;verticalAlign=top;childLayout=stackLayout;horizontal=1;startSize=26;horizontalStack=0;resizeParent=1;resizeParentMax=0;resizeLast=0;collapsible=1;marginBottom=0;" parent="1" vertex="1">
          <mxGeometry x="-1080" y="-410" width="160" height="86" as="geometry" />
        </mxCell>
        <mxCell id="RJoXQkrmtfC7raOjRo7R-11" value="+ field: type" style="text;strokeColor=none;fillColor=none;align=left;verticalAlign=top;spacingLeft=4;spacingRight=4;overflow=hidden;rotatable=0;points=[[0,0.5],[1,0.5]];portConstraint=eastwest;" parent="RJoXQkrmtfC7raOjRo7R-10" vertex="1">
          <mxGeometry y="26" width="160" height="26" as="geometry" />
        </mxCell>
        <mxCell id="RJoXQkrmtfC7raOjRo7R-12" value="" style="line;strokeWidth=1;fillColor=none;align=left;verticalAlign=middle;spacingTop=-1;spacingLeft=3;spacingRight=3;rotatable=0;labelPosition=right;points=[];portConstraint=eastwest;" parent="RJoXQkrmtfC7raOjRo7R-10" vertex="1">
          <mxGeometry y="52" width="160" height="8" as="geometry" />
        </mxCell>
        <mxCell id="RJoXQkrmtfC7raOjRo7R-13" value="+ method(type): type" style="text;strokeColor=none;fillColor=none;align=left;verticalAlign=top;spacingLeft=4;spacingRight=4;overflow=hidden;rotatable=0;points=[[0,0.5],[1,0.5]];portConstraint=eastwest;" parent="RJoXQkrmtfC7raOjRo7R-10" vertex="1">
          <mxGeometry y="60" width="160" height="26" as="geometry" />
        </mxCell>
        <mxCell id="RJoXQkrmtfC7raOjRo7R-14" value="Control Panel" style="swimlane;fontStyle=1;align=center;verticalAlign=top;childLayout=stackLayout;horizontal=1;startSize=26;horizontalStack=0;resizeParent=1;resizeParentMax=0;resizeLast=0;collapsible=1;marginBottom=0;" parent="1" vertex="1">
          <mxGeometry x="-850" y="-610" width="160" height="130" as="geometry" />
        </mxCell>
        <mxCell id="RJoXQkrmtfC7raOjRo7R-15" value=" " style="text;strokeColor=none;fillColor=none;align=left;verticalAlign=top;spacingLeft=4;spacingRight=4;overflow=hidden;rotatable=0;points=[[0,0.5],[1,0.5]];portConstraint=eastwest;" parent="RJoXQkrmtfC7raOjRo7R-14" vertex="1">
          <mxGeometry y="26" width="160" height="26" as="geometry" />
        </mxCell>
        <mxCell id="RJoXQkrmtfC7raOjRo7R-16" value="" style="line;strokeWidth=1;fillColor=none;align=left;verticalAlign=middle;spacingTop=-1;spacingLeft=3;spacingRight=3;rotatable=0;labelPosition=right;points=[];portConstraint=eastwest;" parent="RJoXQkrmtfC7raOjRo7R-14" vertex="1">
          <mxGeometry y="52" width="160" height="8" as="geometry" />
        </mxCell>
        <mxCell id="RJoXQkrmtfC7raOjRo7R-17" value="+ aimButton():&#xa;+ openDoor():&#xa;+ closeDoor():&#xa;+ emergencyButton():" style="text;strokeColor=none;fillColor=none;align=left;verticalAlign=top;spacingLeft=4;spacingRight=4;overflow=hidden;rotatable=0;points=[[0,0.5],[1,0.5]];portConstraint=eastwest;" parent="RJoXQkrmtfC7raOjRo7R-14" vertex="1">
          <mxGeometry y="60" width="160" height="70" as="geometry" />
        </mxCell>
        <mxCell id="RJoXQkrmtfC7raOjRo7R-18" value="" style="endArrow=diamondThin;endFill=0;endSize=24;html=1;rounded=0;entryX=0.5;entryY=1;entryDx=0;entryDy=0;exitX=0.188;exitY=0;exitDx=0;exitDy=0;exitPerimeter=0;" parent="1" source="RJoXQkrmtfC7raOjRo7R-6" edge="1">
          <mxGeometry width="160" relative="1" as="geometry">
            <mxPoint x="-960" y="-409.9999999999999" as="sourcePoint" />
            <mxPoint x="-960" y="-524" as="targetPoint" />
            <Array as="points">
              <mxPoint x="-820" y="-440" />
              <mxPoint x="-960" y="-440" />
            </Array>
          </mxGeometry>
        </mxCell>
        <mxCell id="RJoXQkrmtfC7raOjRo7R-20" value="" style="endArrow=diamondThin;endFill=0;endSize=24;html=1;rounded=0;entryX=0.5;entryY=1;entryDx=0;entryDy=0;exitX=-0.013;exitY=0.068;exitDx=0;exitDy=0;exitPerimeter=0;" parent="1" source="RJoXQkrmtfC7raOjRo7R-14" edge="1">
          <mxGeometry width="160" relative="1" as="geometry">
            <mxPoint x="-920" y="-488" as="sourcePoint" />
            <mxPoint x="-920" y="-602" as="targetPoint" />
          </mxGeometry>
        </mxCell>
        <mxCell id="RJoXQkrmtfC7raOjRo7R-21" value="Floor" style="swimlane;fontStyle=1;align=center;verticalAlign=top;childLayout=stackLayout;horizontal=1;startSize=26;horizontalStack=0;resizeParent=1;resizeParentMax=0;resizeLast=0;collapsible=1;marginBottom=0;" parent="1" vertex="1">
          <mxGeometry x="-1360" y="-610" width="160" height="100" as="geometry" />
        </mxCell>
        <mxCell id="RJoXQkrmtfC7raOjRo7R-22" value="+ floorBell: String" style="text;strokeColor=none;fillColor=none;align=left;verticalAlign=top;spacingLeft=4;spacingRight=4;overflow=hidden;rotatable=0;points=[[0,0.5],[1,0.5]];portConstraint=eastwest;" parent="RJoXQkrmtfC7raOjRo7R-21" vertex="1">
          <mxGeometry y="26" width="160" height="26" as="geometry" />
        </mxCell>
        <mxCell id="RJoXQkrmtfC7raOjRo7R-23" value="" style="line;strokeWidth=1;fillColor=none;align=left;verticalAlign=middle;spacingTop=-1;spacingLeft=3;spacingRight=3;rotatable=0;labelPosition=right;points=[];portConstraint=eastwest;" parent="RJoXQkrmtfC7raOjRo7R-21" vertex="1">
          <mxGeometry y="52" width="160" height="8" as="geometry" />
        </mxCell>
        <mxCell id="RJoXQkrmtfC7raOjRo7R-24" value="+ callElevator():int&#xa;+ ringBell(): int" style="text;strokeColor=none;fillColor=none;align=left;verticalAlign=top;spacingLeft=4;spacingRight=4;overflow=hidden;rotatable=0;points=[[0,0.5],[1,0.5]];portConstraint=eastwest;" parent="RJoXQkrmtfC7raOjRo7R-21" vertex="1">
          <mxGeometry y="60" width="160" height="40" as="geometry" />
        </mxCell>
        <mxCell id="RJoXQkrmtfC7raOjRo7R-25" value="" style="endArrow=none;html=1;rounded=0;" parent="1" edge="1">
          <mxGeometry relative="1" as="geometry">
            <mxPoint x="-1200" y="-590" as="sourcePoint" />
            <mxPoint x="-1080" y="-590" as="targetPoint" />
          </mxGeometry>
        </mxCell>
        <mxCell id="RJoXQkrmtfC7raOjRo7R-26" value="Simulator" style="swimlane;fontStyle=1;align=center;verticalAlign=top;childLayout=stackLayout;horizontal=1;startSize=26;horizontalStack=0;resizeParent=1;resizeParentMax=0;resizeLast=0;collapsible=1;marginBottom=0;" parent="1" vertex="1">
          <mxGeometry x="-1090" y="-810" width="160" height="86" as="geometry" />
        </mxCell>
        <mxCell id="RJoXQkrmtfC7raOjRo7R-27" value="+ time(): int" style="text;strokeColor=none;fillColor=none;align=left;verticalAlign=top;spacingLeft=4;spacingRight=4;overflow=hidden;rotatable=0;points=[[0,0.5],[1,0.5]];portConstraint=eastwest;" parent="RJoXQkrmtfC7raOjRo7R-26" vertex="1">
          <mxGeometry y="26" width="160" height="26" as="geometry" />
        </mxCell>
        <mxCell id="RJoXQkrmtfC7raOjRo7R-28" value="" style="line;strokeWidth=1;fillColor=none;align=left;verticalAlign=middle;spacingTop=-1;spacingLeft=3;spacingRight=3;rotatable=0;labelPosition=right;points=[];portConstraint=eastwest;" parent="RJoXQkrmtfC7raOjRo7R-26" vertex="1">
          <mxGeometry y="52" width="160" height="8" as="geometry" />
        </mxCell>
        <mxCell id="RJoXQkrmtfC7raOjRo7R-29" value="+ randCreatePerson():" style="text;strokeColor=none;fillColor=none;align=left;verticalAlign=top;spacingLeft=4;spacingRight=4;overflow=hidden;rotatable=0;points=[[0,0.5],[1,0.5]];portConstraint=eastwest;" parent="RJoXQkrmtfC7raOjRo7R-26" vertex="1">
          <mxGeometry y="60" width="160" height="26" as="geometry" />
        </mxCell>
        <mxCell id="RJoXQkrmtfC7raOjRo7R-30" value="" style="endArrow=none;html=1;rounded=0;entryX=0.528;entryY=1.083;entryDx=0;entryDy=0;entryPerimeter=0;exitX=0.459;exitY=-0.026;exitDx=0;exitDy=0;exitPerimeter=0;" parent="1" source="RJoXQkrmtfC7raOjRo7R-1" target="RJoXQkrmtfC7raOjRo7R-29" edge="1">
          <mxGeometry relative="1" as="geometry">
            <mxPoint x="-1110" y="-680" as="sourcePoint" />
            <mxPoint x="-950" y="-680" as="targetPoint" />
          </mxGeometry>
        </mxCell>
      </root>
    </mxGraphModel>
  </diagram>
</mxfile>
